<?xml version="1.0" standalone="no"?>
<!DOCTYPE svg PUBLIC "-//W3C//DTD SVG 20010904//EN"
 "http://www.w3.org/TR/2001/REC-SVG-20010904/DTD/svg10.dtd">
<svg version="1.0" xmlns="http://www.w3.org/2000/svg"
 width="800.000000pt" height="433.000000pt" viewBox="0 0 800.000000 433.000000"
 preserveAspectRatio="xMidYMid meet">

<g transform="translate(0.000000,433.000000) scale(0.100000,-0.100000)"
fill="#000000" stroke="none">
<path d="M3932 3818 c-12 -12 -17 -124 -6 -152 8 -22 31 -20 44 3 21 40 8 161
-18 161 -5 0 -13 -5 -20 -12z"/>
<path d="M4260 3654 c-53 -49 -68 -94 -32 -94 28 0 114 88 110 113 -5 35 -25
30 -78 -19z"/>
<path d="M3563 3674 c-4 -11 12 -34 50 -72 48 -47 58 -54 71 -43 23 20 21 27
-30 81 -48 51 -80 63 -91 34z"/>
<path d="M1018 3579 c-19 -10 -25 -54 -9 -63 5 -3 11 4 14 15 3 12 10 18 15
15 13 -8 35 20 27 34 -8 13 -25 12 -47 -1z"/>
<path d="M1090 3576 c0 -8 5 -18 10 -21 6 -3 10 1 10 9 0 8 -4 18 -10 21 -5 3
-10 -1 -10 -9z"/>
<path d="M2498 3576 c-20 -15 -24 -51 -7 -61 6 -4 13 2 16 14 3 11 9 19 13 16
11 -7 33 22 25 35 -8 14 -26 12 -47 -4z"/>
<path d="M2574 3575 c3 -21 16 -31 16 -12 0 9 -4 18 -9 21 -5 4 -8 -1 -7 -9z"/>
<path d="M3958 3578 c-23 -19 -29 -45 -12 -58 11 -10 14 -9 14 3 0 9 9 19 20
22 22 7 28 45 7 45 -7 0 -20 -6 -29 -12z"/>
<path d="M4030 3571 c0 -12 5 -21 10 -21 6 0 10 6 10 14 0 8 -4 18 -10 21 -5
3 -10 -3 -10 -14z"/>
<path d="M5387 3572 c-19 -21 -22 -48 -6 -57 6 -4 13 2 16 14 3 11 8 19 12 17
13 -9 34 12 28 28 -8 21 -30 20 -50 -2z"/>
<path d="M5464 3575 c4 -24 16 -30 16 -7 0 12 -4 22 -9 22 -5 0 -8 -7 -7 -15z"/>
<path d="M6928 3579 c-19 -10 -25 -54 -9 -63 5 -3 11 3 14 14 3 12 14 20 27
20 15 0 20 5 18 17 -4 21 -26 27 -50 12z"/>
<path d="M7000 3576 c0 -8 5 -18 10 -21 6 -3 10 3 10 14 0 12 -4 21 -10 21 -5
0 -10 -6 -10 -14z"/>
<path d="M919 3561 c-13 -11 -20 -23 -16 -27 5 -5 16 1 25 13 9 12 26 23 37
26 19 4 19 5 -1 6 -12 0 -32 -8 -45 -18z"/>
<path d="M1132 3560 c0 -14 2 -19 5 -12 2 6 2 18 0 25 -3 6 -5 1 -5 -13z"/>
<path d="M2408 3569 c-10 -5 -18 -18 -18 -27 0 -14 3 -14 18 5 9 11 26 23 37
26 l20 5 -20 1 c-11 0 -28 -4 -37 -10z"/>
<path d="M2615 3570 c3 -5 8 -10 11 -10 2 0 4 5 4 10 0 6 -5 10 -11 10 -5 0
-7 -4 -4 -10z"/>
<path d="M3859 3561 c-13 -11 -21 -23 -16 -27 4 -4 14 2 22 13 8 12 25 24 38
26 21 4 21 4 1 6 -12 0 -32 -8 -45 -18z"/>
<path d="M5298 3569 c-10 -5 -18 -18 -18 -27 0 -14 3 -14 18 5 9 11 26 23 37
26 l20 5 -20 1 c-11 0 -28 -4 -37 -10z"/>
<path d="M5500 3570 c0 -5 5 -10 10 -10 6 0 10 5 10 10 0 6 -4 10 -10 10 -5 0
-10 -4 -10 -10z"/>
<path d="M6831 3559 c-12 -12 -19 -24 -16 -27 4 -4 14 3 23 15 9 12 26 23 37
26 19 5 19 5 -1 6 -11 0 -30 -8 -43 -20z"/>
<path d="M7040 3564 c0 -8 5 -12 10 -9 6 3 10 10 10 16 0 5 -4 9 -10 9 -5 0
-10 -7 -10 -16z"/>
<path d="M875 3550 c-3 -5 -1 -10 4 -10 6 0 11 5 11 10 0 6 -2 10 -4 10 -3 0
-8 -4 -11 -10z"/>
<path d="M938 3530 c-14 -16 -23 -32 -20 -35 4 -3 8 -20 9 -38 1 -18 6 -50 11
-72 7 -38 10 -40 41 -38 42 2 69 26 53 46 -6 7 -18 37 -25 66 l-13 53 -17 -26
c-15 -23 -16 -30 -2 -68 14 -43 12 -64 -6 -38 -5 8 -14 32 -19 52 -9 31 -7 43
10 74 27 47 12 63 -22 24z"/>
<path d="M2419 3529 c-15 -16 -22 -29 -17 -29 6 0 8 -9 5 -20 -3 -11 -1 -35 4
-53 4 -17 11 -45 14 -61 5 -26 9 -28 38 -22 53 11 63 28 42 73 -10 21 -21 52
-25 68 l-7 30 -13 -28 c-11 -22 -11 -37 -3 -70 6 -23 9 -44 7 -47 -8 -7 -23
21 -34 62 -9 31 -7 43 10 74 27 47 13 61 -21 23z"/>
<path d="M3878 3530 c-14 -16 -22 -32 -18 -35 4 -3 6 -13 4 -23 -2 -9 2 -42 9
-72 13 -54 13 -55 47 -52 55 4 64 20 40 69 -11 23 -20 50 -20 60 0 10 -5 25
-10 33 -8 12 -10 11 -10 -7 0 -12 -4 -25 -10 -28 -11 -7 -2 -64 13 -83 5 -7 7
-15 4 -18 -11 -12 -27 8 -38 48 -9 34 -8 48 6 79 24 51 15 66 -17 29z"/>
<path d="M5245 3550 c-3 -5 -1 -10 4 -10 6 0 11 5 11 10 0 6 -2 10 -4 10 -3 0
-8 -4 -11 -10z"/>
<path d="M5309 3529 c-15 -16 -23 -29 -18 -29 5 0 9 -12 8 -27 -1 -46 13 -112
26 -123 16 -13 75 -1 82 17 3 7 -2 29 -11 47 -9 19 -19 48 -22 66 -7 30 -7 30
-21 10 -14 -20 -13 -64 4 -106 3 -8 0 -14 -6 -14 -5 0 -17 23 -25 50 -14 48
-14 53 5 87 26 46 12 60 -22 22z"/>
<path d="M6760 3539 c-40 -21 -37 -24 9 -8 17 6 31 15 31 20 0 5 -1 9 -2 8 -2
-1 -19 -9 -38 -20z"/>
<path d="M6853 3531 c-18 -17 -28 -33 -22 -37 5 -3 8 -13 5 -22 -6 -20 16
-108 30 -122 13 -13 74 -1 81 17 3 7 -2 28 -11 47 -9 19 -16 41 -16 49 0 9 -3
22 -6 31 -5 13 -9 12 -24 -6 -17 -21 -15 -51 5 -100 4 -10 3 -18 -3 -18 -12 0
-32 54 -32 87 0 13 7 38 16 54 23 45 13 54 -23 20z"/>
<path d="M826 3531 c-4 -5 3 -7 14 -4 23 6 26 13 6 13 -8 0 -17 -4 -20 -9z"/>
<path d="M2310 3530 c-8 -5 -10 -10 -5 -10 6 0 17 5 25 10 8 5 11 10 5 10 -5
0 -17 -5 -25 -10z"/>
<path d="M2640 3536 c0 -2 7 -7 16 -10 8 -3 12 -2 9 4 -6 10 -25 14 -25 6z"/>
<path d="M3766 3531 c-4 -5 3 -7 14 -4 23 6 26 13 6 13 -8 0 -17 -4 -20 -9z"/>
<path d="M4105 3530 c3 -5 8 -10 11 -10 2 0 4 5 4 10 0 6 -5 10 -11 10 -5 0
-7 -4 -4 -10z"/>
<path d="M5200 3530 c-8 -5 -10 -10 -5 -10 6 0 17 5 25 10 8 5 11 10 5 10 -5
0 -17 -5 -25 -10z"/>
<path d="M5551 3519 l24 -20 -25 7 c-20 6 -23 4 -13 -7 6 -8 13 -23 15 -34 4
-18 6 -17 18 7 12 25 11 30 -5 48 -10 11 -22 20 -28 20 -5 0 1 -9 14 -21z"/>
<path d="M7091 3519 l24 -20 -25 7 c-20 6 -23 4 -13 -7 6 -8 13 -23 15 -34 4
-18 6 -17 18 7 12 25 11 30 -5 48 -10 11 -22 20 -28 20 -5 0 1 -9 14 -21z"/>
<path d="M1035 3501 c-13 -25 -13 -34 -1 -61 14 -35 32 -25 20 12 -5 17 -3 20
11 15 28 -11 53 9 48 38 -8 38 -57 35 -78 -4z"/>
<path d="M2525 3513 c-13 -12 -16 -27 -12 -56 6 -46 15 -57 27 -37 6 9 5 19 0
24 -17 17 -11 28 10 21 28 -9 48 10 42 40 -5 30 -41 34 -67 8z"/>
<path d="M3974 3505 c-13 -20 -14 -30 -4 -61 9 -26 15 -33 23 -25 9 9 8 17 -1
31 -7 11 -8 20 -3 20 6 0 13 -4 16 -10 11 -18 45 13 45 42 0 24 -4 28 -30 28
-20 0 -35 -8 -46 -25z"/>
<path d="M5416 3514 c-20 -19 -21 -64 -3 -88 12 -17 14 -17 20 -3 3 9 2 19 -3
22 -19 12 -10 25 13 20 32 -7 46 6 40 38 -6 31 -41 37 -67 11z"/>
<path d="M6964 3522 c-25 -16 -34 -49 -21 -81 6 -17 14 -31 18 -31 12 0 19 29
9 35 -19 12 -10 25 13 20 32 -7 46 6 40 38 -5 27 -33 37 -59 19z"/>
<path d="M860 3511 c0 -17 12 -41 21 -41 5 0 9 11 9 25 0 16 -6 25 -15 25 -8
0 -15 -4 -15 -9z"/>
<path d="M1136 3511 c-5 -7 -3 -18 3 -24 14 -14 20 -6 11 17 -5 15 -9 16 -14
7z"/>
<path d="M2346 3511 c-8 -12 3 -41 15 -41 5 0 9 11 9 25 0 25 -14 34 -24 16z"/>
<path d="M2618 3514 c-8 -8 2 -34 13 -34 4 0 5 8 2 18 -6 15 -5 15 10 3 9 -7
17 -23 17 -34 0 -24 14 -13 24 18 4 15 1 21 -12 21 -9 1 -24 4 -33 8 -8 4 -18
4 -21 0z"/>
<path d="M3800 3508 c0 -7 4 -19 9 -26 6 -10 10 -7 13 12 4 18 1 26 -8 26 -8
0 -14 -6 -14 -12z"/>
<path d="M4074 3509 c-3 -6 -1 -16 5 -22 8 -8 11 -5 11 11 0 24 -5 28 -16 11z"/>
<path d="M5234 3509 c-3 -6 1 -18 10 -27 15 -15 16 -14 16 11 0 27 -13 36 -26
16z"/>
<path d="M5507 3513 c-3 -5 0 -19 8 -29 15 -20 18 -11 6 20 -4 11 -10 15 -14
9z"/>
<path d="M6776 3511 c-8 -12 3 -41 15 -41 5 0 9 11 9 25 0 25 -14 34 -24 16z"/>
<path d="M7046 3511 c-5 -8 -2 -20 8 -29 17 -17 19 -9 7 22 -6 15 -10 16 -15
7z"/>
<path d="M1169 3497 c6 -6 11 -20 11 -31 0 -24 15 -11 24 20 6 18 2 22 -19 22
-19 0 -23 -4 -16 -11z"/>
<path d="M1230 3490 c-6 -11 -7 -20 -2 -20 6 0 12 9 15 20 3 11 3 20 1 20 -2
0 -8 -9 -14 -20z"/>
<path d="M2306 3501 c-5 -7 -3 -18 3 -24 14 -14 20 -6 11 17 -5 15 -9 16 -14
7z"/>
<path d="M2717 3503 c-4 -3 -7 -13 -7 -22 1 -13 3 -13 11 2 11 19 8 33 -4 20z"/>
<path d="M4111 3496 c5 -6 9 -19 9 -30 1 -19 2 -19 15 4 20 34 19 38 -9 36
-16 0 -21 -5 -15 -10z"/>
<path d="M4167 3490 c-3 -11 -3 -20 -1 -20 2 0 8 9 14 20 6 11 7 20 2 20 -6 0
-12 -9 -15 -20z"/>
<path d="M5196 3501 c-5 -7 -3 -18 3 -24 14 -14 20 -6 11 17 -5 15 -9 16 -14
7z"/>
<path d="M5607 3503 c-4 -3 -7 -13 -7 -22 1 -13 3 -13 11 2 11 19 8 33 -4 20z"/>
<path d="M6736 3501 c-5 -7 -3 -18 3 -24 14 -14 20 -6 11 17 -5 15 -9 16 -14
7z"/>
<path d="M7147 3503 c-4 -3 -7 -17 -7 -30 0 -12 -4 -23 -10 -23 -5 0 -10 -17
-11 -37 l-1 -38 -11 28 c-12 31 -24 31 -44 0 -12 -17 -11 -22 4 -34 16 -13 17
-12 4 4 -12 15 -11 17 2 17 9 0 21 -10 28 -21 9 -17 13 -19 20 -8 5 8 9 24 9
37 0 12 5 22 11 22 8 0 9 -13 5 -42 -6 -35 -5 -39 8 -29 15 12 30 54 16 46
-11 -7 -23 69 -15 95 6 20 4 25 -8 13z"/>
<path d="M815 3490 c-3 -5 -4 -10 -1 -10 2 0 12 -3 20 -6 12 -5 15 -2 10 10
-7 18 -20 21 -29 6z"/>
<path d="M3757 3494 c-8 -8 1 -24 14 -24 5 0 9 7 9 15 0 15 -12 20 -23 9z"/>
<path d="M1254 3468 c-4 -6 0 -16 9 -23 10 -7 17 -26 17 -44 0 -21 5 -31 15
-31 20 0 20 42 0 80 -16 32 -29 37 -41 18z"/>
<path d="M2740 3461 c0 -10 7 -22 16 -25 10 -4 14 -15 12 -33 -2 -14 2 -28 9
-30 13 -5 7 58 -9 90 -12 23 -28 22 -28 -2z"/>
<path d="M4190 3465 c0 -9 7 -18 15 -21 9 -4 15 -19 15 -40 0 -22 5 -34 14
-34 10 0 12 9 6 38 -4 20 -11 45 -15 55 -9 21 -35 23 -35 2z"/>
<path d="M5630 3466 c0 -7 7 -19 16 -26 8 -7 14 -25 12 -38 -2 -14 3 -27 10
-29 17 -6 15 41 -3 77 -16 31 -35 40 -35 16z"/>
<path d="M7165 3471 c-3 -5 1 -16 9 -24 8 -8 16 -27 18 -42 4 -37 28 -46 28
-10 0 29 -26 85 -40 85 -5 0 -11 -4 -15 -9z"/>
<path d="M750 3459 c0 -5 5 -7 10 -4 6 3 10 8 10 11 0 2 -4 4 -10 4 -5 0 -10
-5 -10 -11z"/>
<path d="M779 3443 c-24 -25 -24 -26 -2 -21 15 4 23 0 26 -13 5 -20 27 -27 27
-9 0 6 -5 10 -10 10 -6 0 -8 10 -4 24 8 35 -9 39 -37 9z"/>
<path d="M2230 3459 c0 -5 5 -7 10 -4 6 3 10 8 10 11 0 2 -4 4 -10 4 -5 0 -10
-5 -10 -11z"/>
<path d="M2259 3443 c-24 -25 -24 -26 -2 -21 15 4 23 0 26 -13 5 -20 27 -27
27 -9 0 6 -5 10 -11 10 -7 0 -9 10 -5 24 9 35 -7 40 -35 9z"/>
<path d="M3690 3459 c0 -5 5 -7 10 -4 6 3 10 8 10 11 0 2 -4 4 -10 4 -5 0 -10
-5 -10 -11z"/>
<path d="M3718 3449 c-22 -24 -23 -33 -2 -25 11 4 18 -1 21 -14 6 -22 18 -26
28 -10 3 6 1 10 -4 10 -6 0 -11 14 -11 30 0 34 -8 36 -32 9z"/>
<path d="M5120 3459 c0 -5 5 -7 10 -4 6 3 10 8 10 11 0 2 -4 4 -10 4 -5 0 -10
-5 -10 -11z"/>
<path d="M5149 3443 c-24 -25 -24 -26 -2 -21 15 4 23 0 26 -13 5 -20 27 -27
27 -9 0 6 -5 10 -10 10 -6 0 -8 10 -4 24 8 35 -9 39 -37 9z"/>
<path d="M6660 3459 c0 -5 5 -7 10 -4 6 3 10 8 10 11 0 2 -4 4 -10 4 -5 0 -10
-5 -10 -11z"/>
<path d="M6689 3443 c-24 -25 -24 -26 -2 -21 15 4 23 0 26 -13 5 -20 27 -27
27 -9 0 6 -5 10 -10 10 -6 0 -8 10 -4 24 8 35 -9 39 -37 9z"/>
<path d="M1104 3442 c-20 -15 -44 -52 -44 -66 0 -9 74 34 87 51 25 33 -8 44
-43 15z"/>
<path d="M1223 3453 c-7 -3 -13 -20 -13 -39 0 -21 -4 -33 -10 -29 -5 3 -10 15
-10 26 0 25 -15 24 -34 -3 -20 -28 -20 -34 0 -42 14 -5 15 -4 4 9 -10 12 -10
15 3 15 9 0 21 -10 28 -21 9 -17 13 -19 20 -8 5 8 9 24 9 37 0 12 5 22 11 22
7 0 9 -12 5 -35 -7 -34 6 -49 17 -20 9 22 -16 93 -30 88z"/>
<path d="M2600 3450 c0 -5 -6 -10 -13 -10 -11 0 -47 -49 -47 -64 0 -9 74 34
87 51 7 9 10 20 7 24 -7 12 -34 11 -34 -1z"/>
<path d="M4044 3442 c-20 -15 -44 -52 -44 -66 0 -10 74 35 86 52 9 13 9 19 1
24 -16 11 -19 10 -43 -10z"/>
<path d="M4157 3454 c-4 -4 -7 -21 -6 -38 0 -17 3 -24 6 -16 3 8 10 18 16 21
6 4 6 13 0 23 -5 9 -12 13 -16 10z"/>
<path d="M5490 3450 c0 -5 -6 -10 -13 -10 -12 0 -22 -14 -45 -63 -6 -13 72 33
85 50 7 9 10 20 7 24 -7 12 -34 11 -34 -1z"/>
<path d="M5593 3453 c-7 -3 -13 -20 -13 -39 0 -21 -4 -33 -10 -29 -5 3 -10 15
-10 26 0 25 -18 21 -37 -8 -12 -17 -11 -22 4 -34 16 -13 17 -12 4 4 -12 15
-11 17 2 17 9 0 22 -9 30 -20 13 -18 15 -19 21 -5 3 9 6 25 6 36 0 10 5 19 11
19 8 0 9 -14 5 -42 -6 -40 -6 -42 9 -27 15 15 15 22 3 61 -8 28 -18 43 -25 41z"/>
<path d="M7014 3442 c-20 -15 -44 -52 -44 -66 0 -9 74 34 87 51 25 33 -8 44
-43 15z"/>
<path d="M844 3428 c19 -69 19 -71 6 -63 -9 5 -11 4 -6 -3 13 -22 36 -13 36
14 0 14 5 34 11 46 14 27 2 36 -16 12 -13 -17 -14 -17 -15 -1 0 9 -5 17 -11
17 -7 0 -9 -9 -5 -22z"/>
<path d="M2324 3433 c2 -10 7 -28 11 -40 4 -14 2 -23 -5 -23 -6 0 -8 -4 -5
-10 13 -21 33 -9 37 23 3 17 8 40 13 50 4 10 3 17 -4 17 -6 0 -11 -7 -11 -15
0 -8 -4 -15 -10 -15 -5 0 -10 7 -10 15 0 8 -5 15 -11 15 -6 0 -8 -8 -5 -17z"/>
<path d="M2690 3414 c0 -21 -4 -33 -10 -29 -5 3 -10 15 -10 26 0 25 -18 21
-37 -8 -12 -17 -11 -22 4 -34 16 -13 17 -12 4 4 -12 15 -11 17 2 17 9 0 21
-10 28 -21 9 -17 13 -19 20 -8 5 8 9 24 9 37 0 12 5 22 11 22 8 0 9 -13 5 -40
-7 -43 -2 -51 13 -21 13 24 -5 91 -24 91 -10 0 -15 -11 -15 -36z"/>
<path d="M3780 3442 c0 -4 4 -21 9 -39 6 -21 6 -33 -1 -35 -6 -2 -3 -10 6 -17
14 -12 16 -10 16 10 0 13 7 37 15 53 16 31 10 53 -6 23 -12 -21 -31 -23 -23
-2 4 8 1 15 -5 15 -6 0 -11 -3 -11 -8z"/>
<path d="M5214 3433 c2 -10 7 -28 11 -40 4 -14 2 -23 -5 -23 -6 0 -8 -4 -5
-10 13 -21 33 -9 37 23 3 17 8 40 13 50 4 10 3 17 -4 17 -6 0 -11 -7 -11 -15
0 -8 -4 -15 -10 -15 -5 0 -10 7 -10 15 0 8 -5 15 -11 15 -6 0 -8 -8 -5 -17z"/>
<path d="M6754 3433 c17 -59 19 -76 6 -68 -9 5 -11 4 -6 -3 13 -22 36 -13 36
14 0 14 5 34 11 46 14 27 2 36 -16 12 -13 -17 -14 -17 -15 -1 0 9 -5 17 -11
17 -6 0 -8 -8 -5 -17z"/>
<path d="M4100 3415 c-10 -12 -8 -18 11 -35 13 -10 27 -19 32 -20 10 0 9 18
-3 25 -5 3 -10 15 -10 26 0 23 -13 25 -30 4z"/>
<path d="M2388 3404 c-11 -10 -10 -82 1 -88 5 -3 11 0 14 7 7 18 -7 90 -15 81z"/>
<path d="M3837 3379 c-8 -38 -1 -69 14 -69 10 0 10 44 0 80 -7 24 -8 23 -14
-11z"/>
<path d="M5277 3404 c-10 -11 -9 -82 2 -89 5 -3 12 3 15 12 7 23 -7 87 -17 77z"/>
<path d="M6818 3405 c-16 -27 -18 -72 -4 -84 12 -10 15 -9 20 6 6 22 -7 92
-16 78z"/>
<path d="M7230 3401 c0 -6 4 -13 10 -16 6 -3 7 1 4 9 -7 18 -14 21 -14 7z"/>
<path d="M755 3391 c-3 -6 -1 -11 4 -11 6 0 11 -11 11 -25 0 -21 5 -25 31 -25
17 0 39 -5 51 -11 11 -6 22 -8 25 -5 3 3 -6 10 -20 15 -14 6 -30 17 -35 27 -8
15 -10 15 -17 -2 -7 -16 -9 -15 -14 10 -6 31 -25 44 -36 27z"/>
<path d="M895 3370 c-5 -23 -3 -37 9 -48 15 -15 16 -15 17 3 4 62 -15 94 -26
45z"/>
<path d="M2240 3391 c0 -6 4 -11 8 -11 5 0 8 -10 8 -22 -1 -18 6 -24 34 -29
19 -3 44 -10 54 -14 14 -6 17 -5 12 3 -4 7 -13 12 -21 12 -8 0 -21 10 -29 22
-13 18 -16 19 -16 5 0 -28 -18 -20 -22 10 -3 25 -28 47 -28 24z"/>
<path d="M3695 3391 c-3 -6 -1 -11 5 -11 6 0 10 -6 9 -12 -4 -31 3 -38 35 -38
19 0 38 -4 41 -10 3 -5 13 -10 22 -10 9 0 2 10 -18 23 -22 16 -38 21 -46 15
-8 -7 -13 -1 -15 18 -3 29 -22 42 -33 25z"/>
<path d="M5135 3390 c-3 -5 -2 -10 4 -10 6 0 8 -7 5 -15 -9 -21 13 -44 35 -38
11 3 29 0 41 -7 12 -6 24 -9 27 -6 3 3 -6 10 -20 15 -14 6 -30 18 -36 28 -10
17 -10 17 -11 1 0 -10 -4 -18 -10 -18 -5 0 -10 11 -10 24 0 27 -15 42 -25 26z"/>
<path d="M6670 3389 c-13 -7 -13 -9 1 -9 10 0 15 -8 15 -22 -1 -18 6 -24 34
-29 19 -3 44 -10 54 -14 14 -6 17 -5 12 3 -4 7 -13 12 -20 12 -8 0 -19 7 -26
15 -10 12 -16 13 -26 4 -11 -9 -14 -6 -14 14 0 30 -10 39 -30 26z"/>
<path d="M4173 3373 c-3 -10 -8 -22 -11 -28 -3 -5 4 -1 16 9 24 20 28 36 12
36 -6 0 -13 -8 -17 -17z"/>
<path d="M3417 3373 c-4 -3 -7 -14 -7 -24 0 -15 11 -18 72 -21 76 -3 106 8 95
36 -5 13 -21 16 -80 16 -41 0 -77 -3 -80 -7z"/>
<path d="M4085 3370 c3 -5 11 -10 16 -10 6 0 7 5 4 10 -3 6 -11 10 -16 10 -6
0 -7 -4 -4 -10z"/>
<path d="M4324 3365 c-11 -27 10 -37 73 -37 98 1 95 0 91 25 -3 20 -9 22 -81
25 -64 2 -78 0 -83 -13z"/>
<path d="M1094 3333 l6 -38 -20 27 c-18 24 -24 26 -41 15 -10 -6 -19 -22 -19
-34 0 -30 16 -30 26 0 l8 22 6 -25 c10 -40 44 -38 84 6 l35 38 -37 13 c-53 18
-55 17 -48 -24z"/>
<path d="M2573 3353 c2 -10 8 -26 12 -35 11 -27 -10 -22 -29 7 -14 21 -20 23
-34 14 -10 -7 -18 -20 -17 -30 2 -28 12 -33 20 -10 9 29 25 26 25 -4 0 -38 35
-32 75 12 l34 37 -37 13 c-49 17 -55 16 -49 -4z"/>
<path d="M4026 3362 c-2 -4 -1 -14 5 -22 20 -32 8 -44 -15 -16 -22 27 -26 28
-40 13 -18 -17 -22 -57 -6 -57 6 0 10 9 10 21 0 12 5 19 12 17 7 -3 13 -13 13
-24 0 -25 38 -31 57 -9 7 9 21 25 31 37 10 11 17 21 15 22 -11 7 -60 26 -68
26 -5 0 -11 -4 -14 -8z"/>
<path d="M5463 3353 c2 -10 8 -26 12 -35 11 -28 -14 -21 -27 7 -6 14 -14 25
-17 25 -14 -1 -36 -26 -36 -42 0 -26 12 -32 20 -9 9 29 25 26 25 -4 0 -38 35
-32 75 12 l34 37 -37 13 c-49 17 -55 16 -49 -4z"/>
<path d="M7000 3352 c0 -10 5 -23 12 -30 6 -6 8 -15 4 -19 -4 -4 -17 5 -29 20
-18 22 -25 24 -37 14 -15 -12 -20 -40 -8 -52 3 -4 9 3 13 14 8 25 25 18 25
-10 0 -31 38 -23 75 18 l34 37 -37 13 c-48 17 -52 16 -52 -5z"/>
<path d="M730 3336 c0 -14 -4 -26 -10 -26 -5 0 -10 -4 -10 -9 0 -6 10 -8 22
-6 25 5 49 25 30 25 -7 0 -12 6 -12 14 0 8 -4 18 -10 21 -6 4 -10 -5 -10 -19z"/>
<path d="M1335 3315 c0 -23 3 -41 8 -38 9 6 9 54 -1 70 -4 7 -7 -8 -7 -32z"/>
<path d="M2181 3344 c0 -11 3 -14 6 -6 3 7 2 16 -1 19 -3 4 -6 -2 -5 -13z"/>
<path d="M2210 3336 c0 -14 -4 -26 -10 -26 -5 0 -10 -4 -10 -9 0 -6 10 -8 22
-6 25 5 49 25 30 25 -7 0 -12 6 -12 14 0 8 -4 18 -10 21 -6 4 -10 -5 -10 -19z"/>
<path d="M2755 3349 c-10 -15 3 -25 16 -12 7 7 7 13 1 17 -6 3 -14 1 -17 -5z"/>
<path d="M2815 3314 c0 -24 3 -44 8 -44 9 0 9 77 -1 84 -4 2 -7 -15 -7 -40z"/>
<path d="M3668 3354 c-4 -3 -4 -12 -1 -20 3 -8 -3 -22 -13 -30 -18 -13 -17
-14 10 -9 30 4 61 25 38 25 -7 0 -16 9 -20 20 -4 12 -11 18 -14 14z"/>
<path d="M4205 3350 c-8 -13 15 -24 27 -12 6 6 4 11 -6 15 -8 3 -18 2 -21 -3z"/>
<path d="M4271 3344 c0 -11 3 -14 6 -6 3 7 2 16 -1 19 -3 4 -6 -2 -5 -13z"/>
<path d="M5100 3336 c0 -14 -4 -26 -10 -26 -5 0 -10 -4 -10 -9 0 -11 47 -7 58
4 4 4 1 10 -5 12 -7 3 -13 11 -13 18 0 8 -4 17 -10 20 -6 4 -10 -5 -10 -19z"/>
<path d="M5645 3350 c-8 -13 9 -20 24 -11 10 6 9 10 -3 14 -8 3 -18 2 -21 -3z"/>
<path d="M5705 3314 c0 -24 3 -44 8 -44 9 0 9 77 -1 84 -4 2 -7 -15 -7 -40z"/>
<path d="M6611 3344 c0 -11 3 -14 6 -6 3 7 2 16 -1 19 -3 4 -6 -2 -5 -13z"/>
<path d="M6640 3336 c0 -14 -4 -26 -10 -26 -5 0 -10 -4 -10 -9 0 -5 12 -7 27
-5 32 6 43 15 26 21 -7 3 -13 11 -13 18 0 8 -4 17 -10 20 -6 4 -10 -5 -10 -19z"/>
<path d="M7245 3314 c0 -24 3 -44 8 -44 9 0 9 77 -1 84 -4 2 -7 -15 -7 -40z"/>
<path d="M1270 3340 c0 -5 4 -10 9 -10 6 0 13 5 16 10 3 6 -1 10 -9 10 -9 0
-16 -4 -16 -10z"/>
<path d="M7180 3340 c0 -5 4 -10 9 -10 6 0 13 5 16 10 3 6 -1 10 -9 10 -9 0
-16 -4 -16 -10z"/>
<path d="M1175 3316 c-17 -12 -18 -15 -3 -30 23 -22 58 -21 58 2 0 17 -18 42
-30 42 -3 0 -15 -6 -25 -14z"/>
<path d="M1302 3318 c-15 -15 -16 -38 -2 -38 12 0 23 25 18 40 -2 7 -7 7 -16
-2z"/>
<path d="M2658 3319 c-10 -5 -18 -17 -18 -25 0 -8 4 -13 9 -9 5 3 12 1 16 -5
3 -5 15 -10 26 -10 16 0 20 6 17 27 -3 30 -23 39 -50 22z"/>
<path d="M2788 3324 c-5 -4 -8 -19 -8 -33 1 -23 2 -24 11 -8 11 19 9 53 -3 41z"/>
<path d="M3907 3310 c-14 -11 -34 -20 -45 -20 -12 0 -24 -4 -27 -10 -4 -6 15
-10 49 -10 56 0 56 0 56 30 0 36 0 36 -33 10z"/>
<path d="M4115 3316 c-16 -12 -17 -16 -6 -30 7 -9 22 -16 33 -16 15 0 19 6 16
27 -4 32 -17 38 -43 19z"/>
<path d="M4234 3307 c-8 -34 1 -46 14 -20 6 11 7 25 2 33 -6 10 -10 7 -16 -13z"/>
<path d="M5555 3318 c-30 -16 -30 -17 -9 -33 32 -24 56 -19 52 12 -4 31 -15
37 -43 21z"/>
<path d="M5678 3324 c-5 -4 -8 -19 -8 -33 1 -23 2 -24 11 -8 11 19 9 53 -3 41z"/>
<path d="M7086 3315 c-17 -13 -17 -15 -3 -29 9 -9 25 -16 37 -16 17 0 21 5 18
27 -3 32 -25 39 -52 18z"/>
<path d="M7218 3324 c-5 -4 -8 -19 -8 -33 1 -23 2 -24 11 -8 11 19 9 53 -3 41z"/>
<path d="M960 3305 c-7 -8 -23 -15 -36 -15 -12 0 -26 -4 -29 -10 -4 -6 15 -10
49 -10 31 0 56 4 56 9 0 5 3 16 6 25 8 21 -29 22 -46 1z"/>
<path d="M2444 3305 c-4 -8 -19 -15 -34 -15 -16 0 -32 -4 -35 -10 -4 -6 15
-10 49 -10 31 0 56 4 56 9 0 5 3 16 6 25 4 12 0 16 -15 16 -12 0 -24 -7 -27
-15z"/>
<path d="M4281 3313 c-1 -6 -4 -20 -7 -30 -5 -17 -5 -17 6 0 6 10 9 23 6 30
-3 9 -5 9 -5 0z"/>
<path d="M5334 3305 c-4 -8 -19 -15 -34 -15 -16 0 -32 -4 -35 -10 -4 -6 15
-10 49 -10 31 0 56 4 56 9 0 5 3 16 6 25 4 12 0 16 -15 16 -12 0 -24 -7 -27
-15z"/>
<path d="M6874 3305 c-4 -8 -19 -15 -34 -15 -16 0 -32 -5 -35 -11 -5 -7 12 -9
51 -7 50 3 57 6 60 26 3 17 -1 22 -16 22 -12 0 -23 -7 -26 -15z"/>
<path d="M795 3301 c-7 -13 3 -17 45 -19 l35 -2 -25 14 c-29 18 -47 20 -55 7z"/>
<path d="M1245 3300 c-3 -5 0 -7 9 -4 8 3 16 -2 19 -13 4 -14 5 -14 6 5 1 22
-22 31 -34 12z"/>
<path d="M2281 3288 c0 -13 3 -18 5 -11 4 8 17 10 37 7 l32 -5 -25 15 c-35 22
-50 20 -49 -6z"/>
<path d="M2730 3299 c0 -5 4 -8 9 -4 5 3 12 -3 14 -12 4 -14 5 -13 6 5 1 13
-5 22 -14 22 -8 0 -15 -5 -15 -11z"/>
<path d="M3737 3303 c-15 -14 -5 -20 36 -21 41 -1 41 -1 17 13 -28 16 -43 18
-53 8z"/>
<path d="M4185 3299 c-11 -16 -1 -19 13 -3 7 8 8 14 3 14 -5 0 -13 -5 -16 -11z"/>
<path d="M5171 3288 c0 -13 3 -18 5 -11 4 8 17 10 37 7 l32 -5 -25 15 c-35 22
-50 20 -49 -6z"/>
<path d="M5620 3299 c0 -5 4 -8 9 -4 5 3 12 -3 14 -12 4 -14 5 -13 6 5 1 13
-5 22 -14 22 -8 0 -15 -5 -15 -11z"/>
<path d="M6706 3302 c-2 -4 -1 -14 5 -22 6 -10 9 -11 9 -3 0 8 11 11 33 7 l32
-5 -25 15 c-28 17 -46 20 -54 8z"/>
<path d="M7166 3302 c6 -4 14 -14 17 -22 4 -10 6 -8 6 8 1 15 -5 22 -16 22
-11 0 -14 -3 -7 -8z"/>
<path d="M740 3280 l-35 -7 38 -2 c20 0 37 4 37 9 0 6 -1 9 -2 9 -2 -1 -19 -5
-38 -9z"/>
<path d="M2208 3273 c12 -2 30 -2 40 0 9 3 -1 5 -23 4 -22 0 -30 -2 -17 -4z"/>
<path d="M3663 3273 c9 -2 25 -2 35 0 9 3 1 5 -18 5 -19 0 -27 -2 -17 -5z"/>
<path d="M5098 3273 c12 -2 30 -2 40 0 9 3 -1 5 -23 4 -22 0 -30 -2 -17 -4z"/>
<path d="M6638 3273 c12 -2 30 -2 40 0 9 3 -1 5 -23 4 -22 0 -30 -2 -17 -4z"/>
<path d="M5004 3221 c-2 -2 -4 -43 -3 -90 1 -95 19 -196 34 -196 9 0 26 45 39
106 l6 26 222 -4 c173 -4 246 -1 327 11 57 9 107 14 111 11 4 -2 10 -22 14
-42 7 -46 20 -68 34 -59 13 8 26 164 18 208 l-6 33 -396 0 c-218 0 -398 -2
-400 -4z"/>
<path d="M6503 3214 c-7 -19 14 -200 25 -221 7 -12 10 -12 21 0 15 19 41 139
41 195 l0 42 -40 0 c-28 0 -43 -5 -47 -16z"/>
<path d="M7275 3219 c-10 -15 4 -117 22 -162 23 -57 36 -32 41 78 l4 95 -30 0
c-17 0 -34 -5 -37 -11z"/>
<path d="M564 3088 c12 -235 60 -493 111 -602 28 -60 92 -127 142 -151 62 -30
173 -47 259 -42 163 11 219 59 284 243 84 238 127 506 104 647 -6 36 -8 37
-50 37 l-43 0 6 -67 6 -66 -24 6 c-13 4 -63 12 -111 19 -69 9 -98 9 -141 -2
-52 -12 -79 -11 -235 6 -48 5 -158 -7 -198 -23 -14 -5 -15 3 -12 61 l3 66 -54
0 -54 0 7 -132z m373 -34 c39 -53 -19 -165 -92 -179 -38 -7 -95 21 -112 55
-19 37 -16 94 5 121 33 40 170 43 199 3z m333 16 c23 -12 42 -74 33 -109 -8
-37 -41 -70 -81 -81 -72 -19 -142 42 -142 124 0 61 20 76 102 76 38 0 78 -5
88 -10z m-569 -115 c4 -31 15 -65 24 -75 24 -27 108 -43 154 -30 51 13 71 38
90 112 16 59 18 63 46 63 28 0 30 -4 46 -63 9 -34 24 -71 34 -82 35 -38 131
-48 187 -18 25 12 48 61 48 100 0 34 23 78 41 78 12 0 4 -52 -22 -142 -22 -77
-71 -138 -111 -138 -13 0 -42 13 -65 30 l-40 30 -19 -21 c-25 -28 -67 -49 -97
-49 -13 0 -43 13 -65 30 l-41 30 -37 -25 c-53 -36 -89 -33 -134 13 -40 40 -64
102 -76 196 -6 49 -6 50 11 34 11 -10 21 -41 26 -73z"/>
<path d="M3411 3133 c-26 -115 -39 -196 -50 -318 -14 -156 -3 -605 14 -624 2
-1 14 7 27 19 58 56 174 114 278 140 87 22 99 31 115 84 8 27 15 69 15 93 0
40 -5 49 -54 96 -29 29 -75 89 -101 135 -26 45 -53 82 -59 82 -42 0 -101 122
-89 183 7 35 38 53 61 36 55 -42 72 -64 72 -96 0 -19 6 -49 14 -67 17 -42 66
-60 139 -53 59 5 81 26 98 90 20 76 27 87 54 87 28 0 40 -19 50 -82 3 -21 17
-50 30 -65 21 -26 29 -28 95 -28 66 0 74 2 96 28 14 17 26 47 30 78 6 42 13
55 47 84 32 27 43 32 58 24 24 -12 33 -48 26 -107 -4 -37 -12 -53 -42 -80 -20
-18 -45 -53 -55 -78 -28 -65 -91 -153 -144 -201 l-47 -43 7 -52 c9 -77 33
-121 69 -130 17 -4 60 -14 97 -22 98 -23 171 -52 229 -92 28 -20 54 -33 57
-29 4 4 7 140 7 303 -1 318 -14 440 -67 620 l-21 72 -518 0 -517 0 -21 -87z
m624 26 c91 -66 94 -69 59 -65 -16 2 -47 -2 -69 -10 -54 -18 -115 -18 -178 3
-44 14 -48 18 -33 27 10 6 44 30 75 53 31 23 61 42 66 42 6 1 42 -22 80 -50z
m-175 -107 c60 -49 -9 -192 -92 -192 -36 0 -84 24 -98 49 -5 11 -10 43 -10 70
0 47 3 53 33 71 43 26 136 28 167 2z m347 -17 c33 -38 28 -105 -11 -144 -34
-34 -111 -37 -146 -6 -51 45 -65 130 -27 165 19 19 31 21 91 18 61 -3 71 -7
93 -33z"/>
<path d="M6873 2846 c-76 -24 -145 -80 -202 -164 l-23 -33 26 -34 c54 -70 164
-125 250 -125 101 0 248 71 262 126 9 36 -24 102 -82 164 -73 78 -134 96 -231
66z m102 -102 c47 -22 83 -63 66 -73 -36 -22 -211 -22 -211 0 0 14 53 71 74
79 30 12 34 12 71 -6z"/>
<path d="M5313 2717 c-18 -5 -33 -13 -33 -17 0 -5 16 -22 35 -38 65 -57 153
-55 206 5 l32 37 -24 9 c-35 13 -179 16 -216 4z"/>
<path d="M2253 2318 c-77 -80 -144 -216 -167 -340 l-7 -38 461 0 c444 0 460 1
460 19 0 35 -79 176 -144 256 -75 93 -143 161 -131 130 4 -11 14 -47 22 -80
18 -75 10 -135 -24 -175 -43 -52 -78 -64 -179 -65 -83 0 -94 2 -139 30 -32 20
-57 45 -73 75 -21 41 -23 55 -20 143 2 53 1 97 -2 97 -3 0 -29 -24 -57 -52z"/>
<path d="M5026 2344 c-68 -21 -186 -101 -186 -125 0 -6 -11 -27 -25 -47 -32
-48 -32 -52 9 -52 32 0 46 -13 46 -41 0 -5 -25 -9 -55 -9 -52 0 -55 -2 -60
-27 -15 -68 -20 -63 62 -63 66 0 75 -2 80 -20 5 -19 14 -20 129 -20 117 0 124
1 124 20 0 20 7 20 276 20 267 0 276 -1 281 -20 5 -19 14 -20 124 -20 108 0
119 2 129 20 9 17 21 20 84 20 81 0 76 -5 61 63 -5 26 -8 27 -61 27 -52 0 -55
1 -52 23 2 18 10 23 41 25 20 2 37 6 37 9 0 12 -75 118 -99 141 -31 28 -133
78 -178 87 -34 7 -34 7 -49 -97 l-6 -48 -308 0 -308 0 -6 28 c-2 15 -8 48 -11
75 -7 52 -8 52 -79 31z m704 -236 c-1 -37 -9 -38 -306 -36 l-289 3 -3 23 -3
22 300 0 c234 0 301 -3 301 -12z"/>
<path d="M595 2302 c-96 -37 -142 -63 -196 -110 -54 -48 -107 -142 -115 -206
l-7 -46 212 0 211 0 0 195 c0 225 9 211 -105 167z"/>
<path d="M1360 2135 l0 -195 211 0 211 0 -7 43 c-16 106 -102 216 -212 275
-46 24 -179 72 -199 72 -2 0 -4 -88 -4 -195z"/>
<path d="M1892 1588 c-94 -16 -172 -87 -158 -143 9 -36 40 -33 43 5 4 49 30
87 76 109 115 56 171 -11 133 -159 -20 -76 -48 -127 -67 -121 -8 2 -24 5 -36
6 -13 1 -26 4 -29 8 -12 12 17 141 44 191 15 28 28 54 30 59 8 15 -37 6 -62
-14 -52 -41 -96 -176 -82 -251 9 -48 38 -68 98 -68 34 0 48 -4 48 -13 0 -36
63 -60 88 -35 16 16 15 28 -3 28 -8 0 -24 9 -36 21 l-20 20 27 27 c61 61 94
213 60 280 -9 17 -21 34 -28 38 -22 14 -83 20 -126 12z m8 -334 c0 -9 -7 -14
-17 -12 -25 5 -28 28 -4 28 12 0 21 -6 21 -16z"/>
<path d="M4378 1563 c-19 -3 -30 -12 -33 -26 -3 -12 -16 -73 -30 -135 -13 -61
-29 -121 -35 -132 -11 -21 -44 -27 -55 -11 -3 5 4 50 15 100 11 50 20 95 20
101 0 13 -57 13 -65 0 -5 -8 -11 -7 -21 1 -21 18 -77 2 -108 -30 -15 -16 -35
-55 -45 -87 -27 -93 -45 -83 -49 28 -2 51 -7 96 -11 101 -4 4 -21 5 -37 1 -26
-5 -34 -14 -48 -55 -10 -27 -31 -68 -47 -91 -34 -51 -36 -71 -9 -98 28 -28 86
-26 132 5 49 33 56 34 71 5 17 -33 70 -39 107 -12 26 20 27 20 38 1 16 -25 62
-25 94 0 24 20 25 20 41 0 12 -14 30 -19 63 -19 39 0 51 5 79 33 48 48 70 141
44 190 -17 31 -30 38 -63 31 -28 -6 -29 -6 -22 32 4 22 9 47 12 57 3 9 2 16
-3 16 -4 -1 -20 -4 -35 -6z m-198 -150 c0 -43 -27 -135 -45 -152 -19 -19 -48
-5 -53 27 -5 31 15 96 39 126 28 36 59 35 59 -1z m258 15 c32 -32 0 -158 -44
-175 -31 -12 -38 12 -24 88 17 87 39 116 68 87z m-534 -84 c7 -70 1 -88 -35
-99 -20 -7 -49 9 -49 26 0 5 9 9 20 9 16 0 20 6 18 23 -3 25 22 107 32 107 4
0 10 -30 14 -66z"/>
<path d="M5119 1563 c-25 -4 -28 -11 -54 -131 -32 -149 -36 -199 -15 -212 25
-16 66 -11 93 10 l26 21 21 -21 c25 -25 86 -27 119 -4 26 18 60 87 61 120 0
12 7 27 16 34 8 8 20 23 26 34 11 20 10 20 -9 4 -26 -23 -30 -23 -37 7 -14 57
-94 57 -145 0 -30 -34 -51 -89 -51 -133 0 -14 -9 -27 -25 -34 -47 -21 -49 -2
-16 151 34 154 35 162 24 160 -5 -1 -20 -4 -34 -6z m214 -137 c3 -8 3 -17 -1
-21 -4 -4 -7 -28 -7 -54 0 -54 -26 -101 -56 -101 -11 0 -23 8 -26 17 -9 22 12
116 32 147 19 28 50 34 58 12z"/>
<path d="M3637 1473 c-10 -3 -35 -23 -56 -45 -38 -41 -61 -44 -61 -9 0 32 -35
54 -77 48 -56 -9 -93 -53 -113 -134 -18 -70 -40 -97 -61 -76 -10 10 -9 28 1
81 16 85 9 118 -25 126 -25 6 -64 -7 -77 -28 -5 -7 -14 -3 -28 12 -24 26 -47
28 -77 7 -19 -13 -22 -13 -27 0 -3 9 -18 15 -35 15 -28 0 -29 -3 -45 -71 -9
-39 -16 -77 -16 -83 0 -36 -88 -83 -121 -65 -33 17 -22 61 18 71 65 17 110
113 64 138 -28 14 -57 13 -92 -6 -63 -32 -104 -188 -61 -227 28 -26 92 -22
136 8 20 14 38 25 40 25 2 0 1 -11 -2 -25 -4 -23 -1 -25 30 -25 l35 0 13 72
c17 94 28 126 50 138 36 19 39 -17 11 -133 l-19 -78 36 3 c35 3 36 4 49 63 22
105 33 134 54 145 30 16 39 -21 23 -90 -7 -30 -13 -63 -14 -72 -1 -46 81 -66
115 -28 l18 20 19 -20 c23 -25 84 -27 116 -4 25 18 62 84 62 112 0 11 17 30
40 46 22 14 40 31 40 36 0 6 4 10 9 10 5 0 12 -36 16 -81 6 -68 5 -84 -9 -97
-12 -13 -21 -14 -33 -6 -25 16 -26 31 -3 37 24 6 27 25 5 33 -40 16 -62 -58
-27 -89 29 -26 88 -22 119 9 24 24 25 30 19 92 -3 37 -6 86 -6 110 0 44 -6 47
-53 35z m-749 -52 c2 -14 -8 -33 -32 -57 -44 -44 -62 -37 -41 14 29 68 66 91
73 43z m597 9 c3 -5 1 -19 -5 -31 -8 -14 -8 -25 -2 -31 22 -22 -25 -118 -58
-118 -39 0 -37 81 3 153 20 35 49 48 62 27z"/>
<path d="M2105 1448 c-29 -127 -35 -157 -35 -183 0 -17 5 -36 12 -43 19 -19
70 -14 94 9 l22 21 11 -21 c15 -28 69 -28 99 -1 l22 20 21 -21 c18 -18 30 -21
70 -17 32 3 58 13 72 27 30 28 39 27 31 -4 -6 -23 -3 -25 29 -25 l34 0 18 88
c10 48 24 97 32 110 15 25 43 30 43 8 0 -19 14 -28 33 -20 19 7 28 39 14 53
-14 14 -54 14 -62 1 -9 -15 -25 -12 -25 5 0 17 -55 22 -64 6 -3 -5 -13 -42
-21 -82 -17 -80 -47 -121 -97 -133 -58 -13 -80 61 -22 76 65 17 109 99 72 136
-21 21 -74 14 -107 -14 -40 -34 -53 -57 -66 -123 -12 -58 -35 -85 -56 -64 -10
10 -8 34 7 108 11 52 18 97 16 100 -3 3 -18 5 -33 5 -31 0 -34 -8 -59 -131
-12 -62 -42 -101 -62 -81 -9 9 -7 35 9 106 11 53 18 98 15 101 -3 3 -18 5 -33
5 -21 0 -30 -6 -34 -22z m383 -29 c3 -28 -37 -79 -63 -79 -19 0 -19 13 1 53
32 63 56 73 62 26z"/>
<path d="M4594 1450 c-64 -41 -96 -178 -53 -221 18 -18 30 -20 70 -17 32 3 58
13 72 27 30 28 39 27 31 -4 -6 -23 -3 -25 28 -25 l35 0 18 88 c9 48 24 97 31
110 16 24 44 30 44 8 0 -16 22 -27 37 -18 11 7 16 26 14 50 -1 14 -57 16 -66
2 -9 -15 -25 -12 -25 5 0 17 -55 22 -64 6 -3 -5 -13 -42 -21 -82 -17 -80 -33
-105 -83 -126 -43 -18 -75 -3 -70 35 2 20 11 28 35 34 65 17 110 113 64 138
-30 15 -63 12 -97 -10z m84 -27 c4 -26 -44 -83 -69 -83 -18 0 -19 2 -4 37 29
68 66 92 73 46z"/>
<path d="M5635 1460 c-72 -30 -121 -169 -79 -228 17 -24 71 -31 92 -10 21 21
23 2 7 -66 -8 -37 -15 -69 -15 -72 0 -8 55 8 66 20 6 6 26 81 43 166 18 85 35
165 38 178 4 19 1 22 -25 22 -17 0 -34 -5 -37 -10 -4 -7 -12 -7 -25 0 -22 12
-38 12 -65 0z m71 -33 c8 -21 -23 -148 -40 -165 -20 -20 -49 -6 -54 26 -11 71
72 195 94 139z"/>
<path d="M5836 1461 c-4 -5 -15 -53 -26 -107 -18 -88 -19 -99 -5 -121 19 -29
63 -31 97 -4 24 19 24 19 36 0 16 -25 62 -25 94 1 25 19 26 19 43 0 24 -26 95
-28 117 -2 30 35 30 41 -1 29 -35 -13 -61 3 -61 38 0 18 7 24 34 29 21 4 45
19 60 37 64 76 -5 142 -92 89 -37 -22 -67 -81 -75 -144 -5 -37 -19 -56 -44
-56 -23 0 -23 19 -3 109 11 50 20 95 20 101 0 12 -57 13 -64 1 -4 -5 -13 -44
-22 -88 -17 -83 -36 -123 -58 -123 -23 0 -24 23 -5 110 10 47 19 91 19 98 0
14 -56 17 -64 3z m375 -23 c5 -48 -28 -98 -63 -98 -17 0 -17 2 -3 37 24 58 63
93 66 61z"/>
<path d="M3183 1165 c-48 -33 -35 -114 22 -135 77 -29 139 67 80 125 -28 29
-70 32 -102 10z"/>
<path d="M2580 610 c-46 -215 -81 -392 -78 -395 2 -3 35 3 73 13 l69 17 24
115 c14 63 25 116 26 117 1 1 20 -4 42 -12 50 -17 123 -5 174 29 123 81 166
410 60 463 -34 17 -99 16 -134 -2 -39 -21 -43 -19 -38 15 l4 30 -69 0 -70 0
-83 -390z m308 260 c16 -30 9 -139 -12 -200 -28 -80 -76 -130 -125 -130 -30 0
-41 22 -32 61 5 19 20 83 32 144 17 82 28 115 46 133 30 30 73 26 91 -8z"/>
<path d="M4465 988 c-33 -4 -65 -10 -71 -12 -6 -2 -23 -39 -39 -83 -35 -101
-81 -191 -112 -225 -14 -14 -28 -41 -32 -60 -8 -40 -51 -69 -78 -52 -27 16
-27 57 -2 158 13 50 23 115 23 144 1 48 -2 57 -32 83 -39 35 -89 38 -147 9
-22 -11 -41 -20 -42 -20 -2 0 -3 9 -3 20 0 18 -7 20 -65 20 -78 0 -70 14 -110
-185 -24 -123 -32 -144 -59 -173 -40 -42 -102 -72 -153 -72 -54 0 -75 24 -71
80 3 42 4 43 51 55 103 26 177 107 177 196 0 58 -22 87 -74 99 -139 31 -270
-97 -299 -293 -13 -94 -49 -136 -103 -123 -33 9 -32 37 11 230 19 88 35 165
35 172 0 11 -18 14 -69 14 -67 0 -69 -1 -74 -27 -70 -327 -76 -367 -67 -407
14 -63 45 -82 124 -76 43 3 69 15 109 49 l35 31 16 -25 c54 -83 216 -76 319
15 21 18 40 31 42 28 3 -2 0 -20 -5 -39 -17 -58 -16 -59 60 -59 39 0 70 2 70
5 0 38 75 346 91 372 25 41 66 54 86 28 16 -23 16 -34 -3 -120 -34 -157 -36
-178 -25 -217 13 -41 41 -65 81 -68 66 -5 90 1 126 32 32 28 37 30 46 15 15
-28 67 -48 124 -48 72 0 86 5 175 67 42 30 79 54 83 54 3 0 6 -8 6 -17 0 -26
35 -80 60 -93 28 -15 102 -15 132 0 12 7 37 26 54 42 l31 29 13 -31 c16 -39
42 -53 97 -52 47 1 75 13 111 46 21 19 25 19 35 5 25 -33 66 -51 120 -51 71
-1 117 15 155 55 47 48 53 80 42 231 -5 72 -11 158 -13 191 l-3 60 -40 -3
c-103 -8 -103 -8 -138 -107 -41 -112 -82 -193 -112 -222 -13 -12 -26 -34 -29
-50 -13 -62 -49 -84 -86 -54 l-21 17 37 175 c20 95 39 184 42 197 5 21 3 22
-65 22 -62 0 -70 -2 -75 -21 l-6 -20 -20 20 c-45 45 -170 16 -227 -52 -40 -47
-84 -147 -91 -207 -4 -33 -13 -59 -26 -71 -40 -37 -44 -26 -52 124 -4 78 -10
167 -13 197 l-7 55 -60 -7z m-837 -105 c4 -36 -25 -97 -60 -130 -25 -23 -77
-47 -86 -38 -7 7 16 82 40 128 41 82 100 104 106 40z m1312 8 c7 -15 2 -53
-20 -153 -26 -116 -33 -136 -60 -160 -37 -34 -64 -35 -84 -6 -43 61 14 272 86
323 31 21 65 19 78 -4z m-544 -63 c0 -13 4 -70 8 -128 8 -99 7 -107 -13 -132
-29 -36 -84 -47 -111 -23 -26 24 -27 55 -1 48 29 -8 58 40 42 70 -10 19 -8 33
17 87 16 36 32 73 36 83 8 24 21 21 22 -5z m929 -104 c8 -141 2 -166 -48 -184
-42 -14 -54 -13 -77 10 -26 26 -27 53 -1 45 35 -11 67 45 41 71 -7 7 1 35 25
87 19 41 35 80 35 86 0 6 4 11 9 11 5 0 12 -57 16 -126z"/>
</g>
</svg>
